<?xml version="1.0" encoding="utf-8"?>
<svg version="1.1" xmlns="http://www.w3.org/2000/svg" xmlns:xlink="http://www.w3.org/1999/xlink" x="0px" y="0px"
	 viewBox="0 0 589.77 519.62" style="enable-background:new 0 0 589.77 519.62;" xml:space="preserve">
<g>
	<path d="M425.8,2c11.06,0,21.37,5.95,26.9,15.53l130.91,226.75c5.53,9.58,5.53,21.48,0,31.06L452.7,502.09
		c-5.53,9.58-15.84,15.53-26.9,15.53H163.97c-11.06,0-21.37-5.95-26.9-15.53L6.16,275.34c-5.53-9.58-5.53-21.48,0-31.06
		L137.08,17.53C142.61,7.95,152.91,2,163.97,2H425.8 M425.8,0H163.97c-11.81,0-22.72,6.3-28.63,16.53L4.43,243.28
		c-5.9,10.23-5.9,22.83,0,33.06l130.91,226.75c5.9,10.23,16.82,16.53,28.63,16.53H425.8c11.81,0,22.72-6.3,28.63-16.53
		l130.91-226.75c5.91-10.23,5.91-22.83,0-33.06L454.43,16.53C448.52,6.3,437.61,0,425.8,0L425.8,0z"/>
</g>
</svg>
